<svg xmlns="http://www.w3.org/2000/svg" xmlns:xlink="http://www.w3.org/1999/xlink" width="500" zoomAndPan="magnify" viewBox="0 0 375 374.999991" height="500" preserveAspectRatio="xMidYMid meet" version="1.0"><defs><g/><clipPath id="56f540eb50"><path d="M 168 13.351562 L 259 13.351562 L 259 83 L 168 83 Z M 168 13.351562 " clip-rule="nonzero"/></clipPath><clipPath id="4491f4e541"><rect x="0" width="207" y="0" height="85"/></clipPath></defs><path fill="#84cc16" d="M 130.128906 298.703125 C 125.492188 298.703125 120.976562 295.949219 118.894531 291.847656 C 116.867188 287.871094 117.554688 282.105469 120.378906 278.148438 C 105.324219 275.679688 91.894531 265.195312 85.917969 251.132812 C 82.164062 242.300781 81.402344 232.117188 83.769531 222.460938 L 86.933594 209.554688 L 92.355469 221.6875 C 98.382812 235.183594 107.65625 247.546875 119.164062 257.4375 C 127.859375 264.914062 137.941406 271.207031 149.117188 276.140625 L 154.246094 278.40625 L 150.980469 282.964844 C 148.648438 286.222656 146.023438 289.265625 143.191406 292.011719 C 140.5 294.613281 136.34375 298.132812 131.339844 298.644531 C 130.949219 298.683594 130.539062 298.703125 130.128906 298.703125 Z M 130.128906 298.703125 " fill-opacity="1" fill-rule="nonzero"/><path fill="#ffffff" d="M 209.863281 290.019531 C 201.285156 290.019531 192.648438 289.332031 184.199219 287.96875 C 158.542969 283.824219 135.710938 273.664062 118.171875 258.589844 C 114.507812 255.4375 111.003906 251.980469 107.765625 248.308594 L 105.976562 246.285156 L 106.898438 243.746094 C 110.28125 234.382812 115.796875 225.8125 122.847656 218.957031 C 136.203125 205.972656 155.835938 198.527344 176.703125 198.527344 C 177.617188 198.527344 178.527344 198.539062 179.441406 198.570312 C 197.019531 199.152344 214.839844 205.132812 229.625 215.417969 L 232.207031 217.214844 L 231.445312 220.261719 C 230.089844 225.703125 229.710938 231.382812 230.324219 237.152344 C 231.429688 247.558594 235.644531 257.828125 242.1875 266.070312 L 244.964844 269.570312 L 241.515625 272.414062 C 237.492188 275.734375 235.121094 279.949219 234.664062 284.605469 L 234.3125 288.214844 L 230.714844 288.679688 C 223.808594 289.570312 216.792969 290.019531 209.863281 290.019531 Z M 209.863281 290.019531 " fill-opacity="1" fill-rule="nonzero"/><path fill="#ffffff" d="M 169.492188 84.308594 C 167.59375 84.832031 165.613281 85.101562 163.613281 85.101562 C 151.734375 85.101562 142.070312 75.785156 142.070312 64.339844 C 142.070312 52.894531 151.734375 43.578125 163.613281 43.578125 C 166.410156 43.578125 169.128906 44.101562 171.640625 45.070312 C 171.640625 45.070312 171.585938 43.515625 171.585938 43.320312 C 171.585938 28.46875 183.671875 16.386719 198.523438 16.386719 C 213.300781 16.386719 225.335938 28.347656 225.457031 43.089844 C 228.507812 41.257812 231.96875 40.292969 235.546875 40.292969 C 246.382812 40.292969 255.203125 49.113281 255.203125 59.949219 C 255.203125 70.789062 246.382812 79.605469 235.546875 79.605469 C 235.066406 79.605469 234.589844 79.589844 234.113281 79.558594 L 230.367188 95.105469 L 228.335938 96.019531 C 222.589844 98.605469 217.457031 103.023438 213.488281 108.792969 L 211.800781 111.238281 L 208.882812 110.683594 C 202.363281 109.445312 195.648438 108.816406 188.925781 108.816406 C 182.492188 108.816406 176.042969 109.394531 169.75 110.527344 L 162.878906 111.765625 Z M 169.492188 84.308594 " fill-opacity="1" fill-rule="nonzero"/><path fill="#84cc16" d="M 244.851562 298.554688 C 242.820312 298.554688 240.898438 298.050781 239.136719 297.054688 C 235.257812 294.855469 232.867188 290.355469 233.046875 285.578125 C 233.359375 277.164062 239.113281 271.992188 243.027344 269.429688 C 235.117188 260.535156 230.078125 249.164062 228.8125 237.3125 C 228.085938 230.5 228.695312 223.835938 230.507812 217.8125 L 227.0625 215.527344 C 212.863281 206.117188 195.9375 200.632812 179.40625 200.085938 C 178.433594 200.054688 177.464844 200.039062 176.496094 200.039062 C 156.15625 200.039062 136.988281 207.332031 123.90625 220.050781 C 118.066406 225.722656 113.21875 232.75 109.878906 240.367188 L 106.726562 247.574219 L 102.046875 241.253906 C 91.785156 227.394531 85.40625 211.695312 83.597656 195.847656 C 80.789062 171.242188 89.53125 146.0625 106.429688 130.03125 C 105.933594 111.304688 116.40625 95.554688 131.425781 92.511719 C 133.152344 92.164062 134.917969 91.992188 136.679688 91.992188 C 147.75 91.992188 158.414062 98.660156 165.304688 109.855469 C 172.835938 108.152344 180.789062 107.28125 188.785156 107.28125 C 196.324219 107.28125 203.84375 108.054688 211.148438 109.589844 C 218.035156 98.558594 228.636719 91.992188 239.601562 91.992188 C 241.363281 91.992188 243.125 92.164062 244.84375 92.511719 C 260.703125 95.722656 271.296875 112.957031 269.671875 132.742188 C 291.605469 139.140625 313.921875 161.9375 319.617188 183.882812 C 325.574219 206.828125 317.785156 232.960938 300.230469 248.902344 C 295.25 253.425781 289.300781 257.472656 280.945312 262.027344 L 275.371094 265.070312 C 275.34375 265.675781 274.988281 272.898438 274.988281 272.898438 C 274.699219 278.707031 271.648438 284.101562 266.824219 287.339844 L 258.304688 293.042969 C 254.035156 295.90625 249.449219 298.554688 244.851562 298.554688 Z M 244.851562 298.554688 " fill-opacity="1" fill-rule="nonzero"/><path fill="#84cc16" d="M 77.570312 185.652344 C 65.855469 177.457031 59.230469 169.082031 57.882812 160.765625 C 57.066406 155.722656 58.902344 150.730469 62.5625 148.039062 C 64.539062 146.585938 67.023438 145.816406 69.746094 145.816406 C 72.550781 145.816406 75.617188 146.652344 78.160156 148.109375 C 82.460938 150.570312 85.34375 152.9375 88.117188 156.277344 L 89.746094 158.242188 L 88.921875 160.65625 C 86.554688 167.589844 85.148438 174.832031 84.730469 182.179688 L 84.269531 190.339844 Z M 77.570312 185.652344 " fill-opacity="1" fill-rule="nonzero"/><path fill="#ffffff" d="M 78.21875 96.121094 L 78.007812 96.085938 C 74.058594 95.417969 72.335938 90.316406 71.660156 87.328125 C 70.558594 82.46875 70.535156 76 71.597656 69.589844 C 72.660156 63.179688 74.761719 57.0625 77.371094 52.8125 C 78.820312 50.457031 81.785156 46.507812 85.414062 46.507812 L 85.695312 46.507812 L 86.035156 46.542969 C 90.179688 47.222656 91.90625 52.339844 92.582031 55.328125 C 93.679688 60.191406 93.707031 66.65625 92.644531 73.070312 C 91.582031 79.480469 89.480469 85.59375 86.871094 89.847656 C 84.375 93.914062 81.507812 96.152344 78.796875 96.152344 Z M 78.21875 96.121094 " fill-opacity="1" fill-rule="nonzero"/><path fill="#ffffff" d="M 67.839844 94.15625 C 62.535156 92.53125 58.03125 89.296875 54.8125 84.796875 C 50.910156 79.351562 49.363281 72.703125 50.453125 66.089844 C 51.550781 59.472656 55.15625 53.683594 60.605469 49.78125 C 64.875 46.722656 69.90625 45.109375 75.160156 45.109375 L 75.960938 45.121094 L 84.464844 45.386719 L 79.527344 52.316406 C 79.238281 52.71875 78.953125 53.140625 78.664062 53.609375 C 76.121094 57.75 74.144531 63.515625 73.09375 69.835938 C 72.050781 76.152344 72.066406 82.246094 73.140625 86.996094 C 73.261719 87.535156 73.398438 88.03125 73.539062 88.503906 L 75.941406 96.632812 Z M 67.839844 94.15625 " fill-opacity="1" fill-rule="nonzero"/><path fill="#ffb6c7" d="M 185.792969 168.929688 C 174.789062 168.929688 165.539062 158.632812 164.738281 145.488281 L 164.34375 138.964844 L 170.601562 140.847656 C 175.03125 142.183594 179.730469 142.859375 184.582031 142.859375 C 190.332031 142.859375 195.78125 141.9375 200.777344 140.113281 L 207.089844 137.808594 L 206.890625 144.523438 C 206.492188 158.210938 197.226562 168.929688 185.792969 168.929688 Z M 185.792969 168.929688 " fill-opacity="1" fill-rule="nonzero"/><path fill="#ffb6c7" d="M 137.460938 140.066406 C 137.460938 140.898438 137.378906 141.71875 137.214844 142.535156 C 137.054688 143.351562 136.8125 144.140625 136.496094 144.910156 C 136.179688 145.675781 135.789062 146.40625 135.328125 147.097656 C 134.863281 147.785156 134.339844 148.425781 133.753906 149.011719 C 133.164062 149.601562 132.527344 150.125 131.835938 150.585938 C 131.144531 151.046875 130.414062 151.4375 129.648438 151.757812 C 128.882812 152.074219 128.089844 152.3125 127.273438 152.476562 C 126.460938 152.636719 125.636719 152.71875 124.804688 152.71875 C 123.976562 152.71875 123.152344 152.636719 122.339844 152.476562 C 121.523438 152.3125 120.730469 152.074219 119.964844 151.757812 C 119.195312 151.4375 118.46875 151.046875 117.777344 150.585938 C 117.085938 150.125 116.445312 149.601562 115.859375 149.011719 C 115.273438 148.425781 114.746094 147.785156 114.285156 147.097656 C 113.824219 146.40625 113.433594 145.675781 113.117188 144.910156 C 112.800781 144.140625 112.558594 143.351562 112.398438 142.535156 C 112.234375 141.71875 112.152344 140.898438 112.152344 140.066406 C 112.152344 139.234375 112.234375 138.414062 112.398438 137.597656 C 112.558594 136.785156 112.800781 135.992188 113.117188 135.226562 C 113.433594 134.457031 113.824219 133.726562 114.285156 133.039062 C 114.746094 132.347656 115.273438 131.707031 115.859375 131.121094 C 116.445312 130.53125 117.085938 130.007812 117.777344 129.546875 C 118.46875 129.085938 119.195312 128.695312 119.964844 128.378906 C 120.730469 128.058594 121.523438 127.820312 122.339844 127.65625 C 123.152344 127.496094 123.976562 127.414062 124.804688 127.414062 C 125.636719 127.414062 126.460938 127.496094 127.273438 127.65625 C 128.089844 127.820312 128.882812 128.058594 129.648438 128.378906 C 130.414062 128.695312 131.144531 129.085938 131.835938 129.546875 C 132.527344 130.007812 133.164062 130.53125 133.753906 131.121094 C 134.339844 131.707031 134.863281 132.347656 135.328125 133.039062 C 135.789062 133.726562 136.179688 134.457031 136.496094 135.226562 C 136.8125 135.992188 137.054688 136.785156 137.214844 137.597656 C 137.378906 138.414062 137.460938 139.234375 137.460938 140.066406 Z M 137.460938 140.066406 " fill-opacity="1" fill-rule="nonzero"/><path fill="#ffb6c7" d="M 263.449219 140.066406 C 263.449219 140.898438 263.367188 141.71875 263.207031 142.535156 C 263.042969 143.351562 262.804688 144.140625 262.484375 144.910156 C 262.167969 145.675781 261.777344 146.40625 261.316406 147.097656 C 260.855469 147.785156 260.328125 148.425781 259.742188 149.011719 C 259.15625 149.601562 258.515625 150.125 257.824219 150.585938 C 257.132812 151.046875 256.40625 151.4375 255.636719 151.757812 C 254.871094 152.074219 254.078125 152.3125 253.265625 152.476562 C 252.449219 152.636719 251.625 152.71875 250.796875 152.71875 C 249.964844 152.71875 249.140625 152.636719 248.328125 152.476562 C 247.511719 152.3125 246.722656 152.074219 245.953125 151.757812 C 245.1875 151.4375 244.457031 151.046875 243.765625 150.585938 C 243.074219 150.125 242.4375 149.601562 241.847656 149.011719 C 241.261719 148.425781 240.738281 147.785156 240.273438 147.097656 C 239.8125 146.40625 239.425781 145.675781 239.105469 144.910156 C 238.789062 144.140625 238.546875 143.351562 238.386719 142.535156 C 238.222656 141.71875 238.144531 140.898438 238.144531 140.066406 C 238.144531 139.234375 238.222656 138.414062 238.386719 137.597656 C 238.546875 136.785156 238.789062 135.992188 239.105469 135.226562 C 239.425781 134.457031 239.8125 133.726562 240.273438 133.039062 C 240.738281 132.347656 241.261719 131.707031 241.847656 131.121094 C 242.4375 130.53125 243.074219 130.007812 243.765625 129.546875 C 244.457031 129.085938 245.1875 128.695312 245.953125 128.378906 C 246.722656 128.058594 247.511719 127.820312 248.328125 127.65625 C 249.140625 127.496094 249.964844 127.414062 250.796875 127.414062 C 251.625 127.414062 252.449219 127.496094 253.265625 127.65625 C 254.078125 127.820312 254.871094 128.058594 255.636719 128.378906 C 256.40625 128.695312 257.132812 129.085938 257.824219 129.546875 C 258.515625 130.007812 259.15625 130.53125 259.742188 131.121094 C 260.328125 131.707031 260.855469 132.347656 261.316406 133.039062 C 261.777344 133.726562 262.167969 134.457031 262.484375 135.226562 C 262.804688 135.992188 263.042969 136.785156 263.207031 137.597656 C 263.367188 138.414062 263.449219 139.234375 263.449219 140.066406 Z M 263.449219 140.066406 " fill-opacity="1" fill-rule="nonzero"/><path fill="#234447" d="M 149.695312 127.414062 C 149.695312 128.347656 149.625 129.273438 149.488281 130.191406 C 149.351562 131.105469 149.148438 131.996094 148.882812 132.859375 C 148.613281 133.722656 148.285156 134.542969 147.898438 135.320312 C 147.507812 136.09375 147.066406 136.8125 146.570312 137.476562 C 146.078125 138.136719 145.539062 138.726562 144.957031 139.246094 C 144.375 139.761719 143.757812 140.203125 143.113281 140.558594 C 142.464844 140.917969 141.800781 141.1875 141.113281 141.367188 C 140.425781 141.550781 139.734375 141.640625 139.03125 141.640625 C 138.332031 141.640625 137.640625 141.550781 136.953125 141.367188 C 136.265625 141.1875 135.601562 140.917969 134.953125 140.558594 C 134.308594 140.203125 133.691406 139.761719 133.109375 139.246094 C 132.527344 138.726562 131.988281 138.136719 131.496094 137.476562 C 131 136.8125 130.558594 136.09375 130.167969 135.320312 C 129.78125 134.542969 129.453125 133.722656 129.183594 132.859375 C 128.917969 131.996094 128.714844 131.105469 128.578125 130.191406 C 128.441406 129.273438 128.371094 128.347656 128.371094 127.414062 C 128.371094 126.480469 128.441406 125.554688 128.578125 124.636719 C 128.714844 123.722656 128.917969 122.832031 129.183594 121.96875 C 129.453125 121.105469 129.78125 120.285156 130.167969 119.507812 C 130.558594 118.734375 131 118.015625 131.496094 117.355469 C 131.988281 116.691406 132.527344 116.101562 133.109375 115.585938 C 133.691406 115.066406 134.308594 114.625 134.953125 114.269531 C 135.601562 113.910156 136.265625 113.640625 136.953125 113.460938 C 137.640625 113.277344 138.332031 113.1875 139.03125 113.1875 C 139.734375 113.1875 140.425781 113.277344 141.113281 113.460938 C 141.800781 113.640625 142.464844 113.910156 143.113281 114.269531 C 143.757812 114.625 144.375 115.066406 144.957031 115.585938 C 145.539062 116.101562 146.078125 116.691406 146.570312 117.355469 C 147.066406 118.015625 147.507812 118.734375 147.898438 119.507812 C 148.285156 120.285156 148.613281 121.105469 148.882812 121.96875 C 149.148438 122.832031 149.351562 123.722656 149.488281 124.636719 C 149.625 125.554688 149.695312 126.480469 149.695312 127.414062 Z M 149.695312 127.414062 " fill-opacity="1" fill-rule="nonzero"/><path fill="#234447" d="M 247.496094 127.414062 C 247.496094 128.347656 247.429688 129.273438 247.292969 130.191406 C 247.15625 131.105469 246.953125 131.996094 246.6875 132.859375 C 246.417969 133.722656 246.089844 134.542969 245.699219 135.320312 C 245.3125 136.09375 244.871094 136.8125 244.375 137.476562 C 243.878906 138.136719 243.34375 138.726562 242.761719 139.246094 C 242.179688 139.761719 241.5625 140.203125 240.917969 140.558594 C 240.269531 140.917969 239.601562 141.1875 238.917969 141.367188 C 238.230469 141.550781 237.539062 141.640625 236.835938 141.640625 C 236.136719 141.640625 235.445312 141.550781 234.757812 141.367188 C 234.070312 141.1875 233.402344 140.917969 232.757812 140.558594 C 232.109375 140.203125 231.496094 139.761719 230.914062 139.246094 C 230.332031 138.726562 229.792969 138.136719 229.300781 137.476562 C 228.804688 136.8125 228.363281 136.09375 227.972656 135.320312 C 227.585938 134.542969 227.257812 133.722656 226.988281 132.859375 C 226.71875 131.996094 226.519531 131.105469 226.382812 130.191406 C 226.246094 129.273438 226.175781 128.347656 226.175781 127.414062 C 226.175781 126.480469 226.246094 125.554688 226.382812 124.636719 C 226.519531 123.722656 226.71875 122.832031 226.988281 121.96875 C 227.257812 121.105469 227.585938 120.285156 227.972656 119.507812 C 228.363281 118.734375 228.804688 118.015625 229.300781 117.355469 C 229.792969 116.691406 230.332031 116.101562 230.914062 115.585938 C 231.496094 115.066406 232.109375 114.625 232.757812 114.269531 C 233.402344 113.910156 234.070312 113.640625 234.757812 113.460938 C 235.445312 113.277344 236.136719 113.1875 236.835938 113.1875 C 237.539062 113.1875 238.230469 113.277344 238.917969 113.460938 C 239.601562 113.640625 240.269531 113.910156 240.917969 114.269531 C 241.5625 114.625 242.179688 115.066406 242.761719 115.585938 C 243.34375 116.101562 243.878906 116.691406 244.375 117.355469 C 244.871094 118.015625 245.3125 118.734375 245.699219 119.507812 C 246.089844 120.285156 246.417969 121.105469 246.6875 121.96875 C 246.953125 122.832031 247.15625 123.722656 247.292969 124.636719 C 247.429688 125.554688 247.496094 126.480469 247.496094 127.414062 Z M 247.496094 127.414062 " fill-opacity="1" fill-rule="nonzero"/><path fill="#234447" d="M 185.792969 171.96875 C 172.480469 171.96875 161.648438 159.25 161.648438 143.621094 C 161.648438 142.300781 161.742188 140.957031 161.9375 139.386719 C 162.089844 138.199219 162.789062 137.15625 163.828125 136.5625 C 164.867188 135.972656 166.125 135.902344 167.21875 136.382812 C 172.386719 138.636719 178.390625 139.824219 184.582031 139.824219 C 191.691406 139.824219 198.402344 138.292969 204 135.394531 C 205.074219 134.835938 206.359375 134.828125 207.441406 135.371094 C 208.527344 135.914062 209.289062 136.945312 209.488281 138.140625 C 209.789062 139.945312 209.941406 141.789062 209.941406 143.621094 C 209.941406 159.25 199.109375 171.96875 185.792969 171.96875 Z M 169.285156 145.210938 C 169.9375 155.914062 177.09375 164.375 185.792969 164.375 C 194.71875 164.375 202.015625 155.480469 202.339844 144.390625 C 196.890625 146.378906 190.847656 147.414062 184.582031 147.414062 C 179.292969 147.414062 174.09375 146.660156 169.285156 145.210938 Z M 169.285156 145.210938 " fill-opacity="1" fill-rule="nonzero"/><path fill="#234447" d="M 210.007812 293.074219 C 201.214844 293.074219 192.429688 292.371094 183.714844 290.960938 C 157.507812 286.734375 134.160156 276.335938 116.195312 260.890625 C 96.304688 243.792969 83.320312 220.210938 80.578125 196.191406 C 77.71875 171.125 86.433594 145.464844 103.375 128.761719 C 103.375 109.148438 114.71875 92.796875 130.824219 89.535156 C 144.066406 86.863281 157.890625 93.449219 166.707031 106.4375 C 180.789062 103.59375 195.554688 103.515625 209.734375 106.210938 C 218.554688 93.390625 232.335938 86.882812 245.449219 89.535156 C 262.15625 92.917969 273.554688 110.265625 272.839844 130.558594 C 295.246094 138.136719 316.722656 160.632812 322.558594 183.117188 C 328.789062 207.128906 320.636719 234.472656 302.269531 251.152344 C 295.070312 257.683594 286.839844 262.5 276.699219 267.714844 C 274.839844 268.679688 272.546875 267.941406 271.585938 266.078125 C 270.628906 264.210938 271.359375 261.921875 273.222656 260.964844 C 282.835938 256.023438 290.585938 251.503906 297.167969 245.53125 C 313.503906 230.695312 320.753906 206.382812 315.207031 185.023438 C 309.824219 164.277344 288.574219 142.71875 267.84375 136.960938 C 266.074219 136.46875 264.90625 134.773438 265.082031 132.945312 C 266.765625 115.21875 257.679688 99.757812 243.941406 96.976562 C 233.230469 94.824219 221.777344 100.871094 214.753906 112.417969 C 213.917969 113.796875 212.300781 114.492188 210.714844 114.15625 C 195.949219 110.976562 180.410156 111.066406 165.769531 114.402344 C 164.160156 114.765625 162.515625 114.0625 161.671875 112.652344 C 154.652344 100.945312 143.128906 94.8125 132.332031 96.976562 C 119.40625 99.59375 110.429688 113.574219 110.988281 130.222656 C 111.027344 131.316406 110.59375 132.371094 109.792969 133.121094 C 93.765625 148.167969 85.460938 172.007812 88.121094 195.332031 C 90.652344 217.472656 102.6875 239.269531 121.140625 255.132812 C 138.042969 269.664062 160.101562 279.460938 184.925781 283.46875 C 200.796875 286.03125 216.925781 286.152344 232.84375 283.816406 C 234.933594 283.515625 236.847656 284.949219 237.152344 287.019531 C 237.457031 289.097656 236.019531 291.023438 233.945312 291.328125 C 225.996094 292.492188 218 293.074219 210.007812 293.074219 Z M 210.007812 293.074219 " fill-opacity="1" fill-rule="nonzero"/><path fill="#234447" d="M 130.164062 301.738281 C 124.410156 301.738281 118.808594 298.386719 116.1875 293.226562 C 114.296875 289.515625 114.289062 284.578125 115.867188 280.296875 C 101.464844 276.59375 88.957031 266.054688 83.121094 252.316406 C 77.695312 239.539062 78.207031 224.339844 84.488281 211.648438 C 85.417969 209.769531 87.699219 209.007812 89.574219 209.929688 C 91.453125 210.863281 92.222656 213.136719 91.292969 215.015625 C 85.980469 225.75 85.539062 238.585938 90.109375 249.347656 C 95.640625 262.363281 108.269531 271.972656 122.289062 273.824219 C 123.6875 274.007812 124.867188 274.953125 125.355469 276.269531 C 125.84375 277.59375 125.558594 279.074219 124.617188 280.125 C 122.382812 282.617188 121.605469 287.132812 122.953125 289.785156 C 124.390625 292.609375 127.703125 294.445312 130.878906 294.109375 C 134.472656 293.746094 137.816406 290.867188 140.023438 288.734375 C 143.632812 285.242188 146.820312 281.296875 149.5 277.003906 C 150.609375 275.226562 152.953125 274.683594 154.726562 275.792969 C 156.507812 276.902344 157.046875 279.246094 155.9375 281.023438 C 152.933594 285.835938 149.355469 290.269531 145.300781 294.191406 C 142.285156 297.109375 137.585938 301.058594 131.644531 301.664062 C 131.152344 301.710938 130.660156 301.738281 130.164062 301.738281 Z M 130.164062 301.738281 " fill-opacity="1" fill-rule="nonzero"/><path fill="#234447" d="M 244.832031 301.609375 C 242.488281 301.609375 240.058594 301.066406 237.636719 299.691406 C 232.78125 296.945312 229.792969 291.359375 230.011719 285.464844 C 230.25 279.070312 233.269531 273.3125 238.617188 268.902344 C 231.515625 259.957031 227.003906 249.003906 225.792969 237.632812 C 224.375 224.304688 227.796875 211.453125 235.191406 202.371094 C 242.328125 193.597656 253.335938 188.183594 264.636719 187.886719 C 266.683594 187.777344 268.476562 189.480469 268.53125 191.578125 C 268.589844 193.675781 266.933594 195.417969 264.839844 195.472656 C 255.71875 195.714844 246.835938 200.085938 241.074219 207.164062 C 234.953125 214.683594 232.136719 225.5 233.339844 236.828125 C 234.535156 248.015625 239.378906 258.738281 246.988281 267.023438 C 247.757812 267.859375 248.113281 268.996094 247.953125 270.125 C 247.792969 271.25 247.136719 272.246094 246.167969 272.832031 C 243.074219 274.714844 237.851562 278.890625 237.597656 285.75 C 237.484375 288.84375 238.964844 291.722656 241.378906 293.089844 C 245.300781 295.308594 249.792969 293.269531 255.769531 289.257812 L 264.285156 283.554688 C 267.917969 281.121094 270.222656 277.050781 270.4375 272.675781 L 270.734375 266.671875 C 270.976562 261.644531 271.21875 256.621094 271.511719 251.425781 C 271.632812 249.335938 273.398438 247.78125 275.519531 247.847656 C 277.609375 247.96875 279.210938 249.761719 279.09375 251.855469 C 278.800781 257.027344 278.558594 262.03125 278.316406 267.039062 L 278.019531 273.054688 C 277.683594 279.8125 274.128906 286.09375 268.515625 289.863281 L 260 295.566406 C 256.5625 297.871094 250.984375 301.609375 244.832031 301.609375 Z M 244.832031 301.609375 " fill-opacity="1" fill-rule="nonzero"/><path fill="#234447" d="M 226.824219 197.234375 C 225.796875 197.234375 224.769531 196.816406 224.019531 195.996094 C 220.902344 192.578125 217.679688 189.046875 215.238281 184.777344 C 213.195312 181.210938 210.9375 175.667969 211.800781 169.511719 C 212.664062 163.335938 216.691406 158.148438 222.058594 156.292969 C 228.027344 154.21875 235.125 156.386719 240.148438 161.78125 C 244.355469 166.300781 246.488281 172.101562 248.203125 176.757812 C 248.925781 178.726562 247.921875 180.90625 245.953125 181.632812 C 243.988281 182.367188 241.800781 181.351562 241.082031 179.382812 C 239.199219 174.269531 237.523438 170.105469 234.589844 166.949219 C 232.230469 164.417969 228.085938 162.230469 224.539062 163.464844 C 221.882812 164.386719 219.785156 167.238281 219.316406 170.566406 C 218.753906 174.589844 220.371094 178.464844 221.828125 181.007812 C 223.851562 184.546875 226.789062 187.765625 229.628906 190.878906 C 231.039062 192.425781 230.929688 194.828125 229.382812 196.242188 C 228.65625 196.90625 227.738281 197.234375 226.824219 197.234375 Z M 226.824219 197.234375 " fill-opacity="1" fill-rule="nonzero"/><path fill="#234447" d="M 83.503906 192.429688 C 82.828125 192.429688 82.144531 192.25 81.523438 191.871094 C 70.542969 185.136719 57.003906 174.363281 54.886719 161.25 C 53.886719 155.097656 56.199219 148.949219 60.765625 145.589844 C 65.855469 141.855469 73.269531 141.808594 79.667969 145.472656 C 84.78125 148.402344 88.230469 151.378906 91.574219 155.742188 C 92.847656 157.40625 92.53125 159.789062 90.867188 161.0625 C 89.199219 162.335938 86.820312 162.023438 85.542969 160.355469 C 82.792969 156.765625 80.179688 154.515625 75.894531 152.0625 C 72.886719 150.335938 68.277344 149.488281 65.261719 151.707031 C 63 153.371094 61.839844 156.71875 62.378906 160.039062 C 64.042969 170.304688 75.863281 179.496094 85.492188 185.394531 C 87.277344 186.492188 87.839844 188.832031 86.746094 190.617188 C 86.027344 191.785156 84.78125 192.429688 83.503906 192.429688 Z M 83.503906 192.429688 " fill-opacity="1" fill-rule="nonzero"/><path fill="#234447" d="M 78.800781 99.1875 C 78.328125 99.1875 77.898438 99.144531 77.527344 99.082031 C 75.074219 98.675781 70.667969 96.699219 68.695312 88 C 67.496094 82.695312 67.460938 75.980469 68.601562 69.089844 C 69.742188 62.207031 71.9375 55.859375 74.785156 51.222656 C 79.453125 43.625 84.253906 43.167969 86.714844 43.574219 C 89.167969 43.980469 93.574219 45.957031 95.542969 54.65625 C 96.746094 59.964844 96.78125 66.679688 95.636719 73.566406 C 94.5 80.453125 92.304688 86.796875 89.457031 91.4375 C 85.5 97.882812 81.4375 99.1875 78.800781 99.1875 Z M 85.414062 51.0625 C 84.859375 51.0625 83.191406 52.039062 81.253906 55.195312 C 78.941406 58.960938 77.058594 64.476562 76.089844 70.332031 C 75.121094 76.1875 75.128906 82.015625 76.101562 86.324219 C 76.949219 90.078125 78.289062 91.515625 78.765625 91.59375 C 79.265625 91.632812 80.972656 90.746094 82.988281 87.464844 C 85.296875 83.699219 87.183594 78.179688 88.152344 72.328125 C 89.121094 66.472656 89.113281 60.640625 88.136719 56.332031 C 87.289062 52.582031 85.953125 51.144531 85.476562 51.0625 C 85.457031 51.0625 85.4375 51.0625 85.414062 51.0625 Z M 85.414062 51.0625 " fill-opacity="1" fill-rule="nonzero"/><path fill="#234447" d="M 59.023438 214.722656 C 58.820312 214.722656 58.609375 214.703125 58.398438 214.671875 C 56.332031 214.328125 54.933594 212.375 55.277344 210.304688 L 61.277344 174.03125 C 61.617188 171.960938 63.558594 170.5625 65.640625 170.90625 C 67.710938 171.246094 69.109375 173.203125 68.765625 175.269531 L 62.761719 211.546875 C 62.457031 213.40625 60.847656 214.722656 59.023438 214.722656 Z M 59.023438 214.722656 " fill-opacity="1" fill-rule="nonzero"/><path fill="#234447" d="M 69.773438 149.757812 C 69.570312 149.757812 69.359375 149.742188 69.148438 149.707031 C 67.082031 149.363281 65.683594 147.410156 66.027344 145.34375 L 73.78125 98.464844 L 70.621094 97.941406 C 63.207031 96.714844 56.714844 92.675781 52.34375 86.5625 C 47.96875 80.453125 46.234375 73.007812 47.460938 65.59375 C 48.6875 58.179688 52.726562 51.6875 58.835938 47.3125 C 64.949219 42.9375 72.394531 41.207031 79.808594 42.433594 L 86.714844 43.574219 C 88.78125 43.917969 90.183594 45.871094 89.839844 47.941406 C 89.496094 50.007812 87.523438 51.398438 85.472656 51.0625 L 78.566406 49.917969 C 73.152344 49.023438 67.71875 50.289062 63.257812 53.484375 C 58.796875 56.679688 55.847656 61.417969 54.949219 66.832031 C 54.054688 72.246094 55.320312 77.683594 58.515625 82.144531 C 61.707031 86.605469 66.449219 89.554688 71.863281 90.453125 L 78.765625 91.59375 C 79.761719 91.757812 80.648438 92.308594 81.234375 93.128906 C 81.820312 93.949219 82.054688 94.964844 81.890625 95.960938 L 73.511719 146.582031 C 73.207031 148.441406 71.597656 149.757812 69.773438 149.757812 Z M 69.773438 149.757812 " fill-opacity="1" fill-rule="nonzero"/><path fill="#234447" d="M 164.496094 112.101562 C 164.199219 112.101562 163.902344 112.066406 163.601562 111.996094 C 161.5625 111.503906 160.3125 109.453125 160.800781 107.414062 L 166.582031 83.453125 C 167.070312 81.414062 169.117188 80.160156 171.160156 80.652344 C 173.199219 81.144531 174.453125 83.191406 173.960938 85.230469 L 168.183594 109.195312 C 167.765625 110.933594 166.210938 112.101562 164.496094 112.101562 Z M 164.496094 112.101562 " fill-opacity="1" fill-rule="nonzero"/><path fill="#234447" d="M 229.828125 97.902344 C 229.535156 97.902344 229.234375 97.871094 228.9375 97.796875 C 226.898438 97.304688 225.644531 95.257812 226.136719 93.21875 L 229.71875 78.355469 C 230.210938 76.316406 232.261719 75.070312 234.300781 75.554688 C 236.339844 76.046875 237.589844 78.09375 237.101562 80.132812 L 233.515625 94.996094 C 233.097656 96.738281 231.542969 97.902344 229.828125 97.902344 Z M 229.828125 97.902344 " fill-opacity="1" fill-rule="nonzero"/><path fill="#234447" d="M 163.613281 88.136719 C 150.058594 88.136719 139.035156 77.460938 139.035156 64.339844 C 139.035156 51.21875 150.058594 40.542969 163.613281 40.542969 C 172.589844 40.542969 180.851562 45.277344 185.171875 52.90625 C 186.207031 54.730469 185.5625 57.042969 183.742188 58.078125 C 181.917969 59.113281 179.601562 58.472656 178.570312 56.648438 C 175.59375 51.394531 169.863281 48.132812 163.613281 48.132812 C 154.246094 48.132812 146.625 55.402344 146.625 64.339844 C 146.625 73.277344 154.246094 80.546875 163.613281 80.546875 C 167.65625 80.546875 171.574219 79.167969 174.644531 76.660156 C 176.269531 75.332031 178.664062 75.578125 179.984375 77.203125 C 181.308594 78.824219 181.066406 81.21875 179.441406 82.542969 C 175.023438 86.152344 169.398438 88.136719 163.613281 88.136719 Z M 163.613281 88.136719 " fill-opacity="1" fill-rule="nonzero"/><g clip-path="url(#56f540eb50)"><path fill="#234447" d="M 235.546875 82.644531 C 230.574219 82.644531 225.851562 81.066406 221.894531 78.078125 C 220.222656 76.8125 219.886719 74.433594 221.148438 72.761719 C 222.414062 71.089844 224.792969 70.757812 226.464844 72.019531 C 229.097656 74.003906 232.238281 75.050781 235.546875 75.050781 C 243.875 75.050781 250.648438 68.277344 250.648438 59.949219 C 250.648438 51.621094 243.875 44.847656 235.546875 44.847656 C 232.414062 44.847656 229.402344 45.8125 226.832031 47.632812 C 225.644531 48.472656 224.082031 48.558594 222.8125 47.863281 C 221.539062 47.164062 220.773438 45.800781 220.847656 44.351562 L 220.875 43.859375 C 220.886719 43.679688 220.902344 43.503906 220.902344 43.320312 C 220.902344 30.984375 210.863281 20.941406 198.523438 20.941406 C 186.183594 20.941406 176.140625 30.984375 176.140625 43.320312 C 176.140625 43.925781 176.167969 44.523438 176.214844 45.109375 C 176.378906 47.199219 174.820312 49.027344 172.730469 49.191406 C 170.671875 49.339844 168.808594 47.800781 168.644531 45.707031 C 168.585938 44.921875 168.550781 44.128906 168.550781 43.320312 C 168.550781 26.796875 181.996094 13.351562 198.523438 13.351562 C 213.414062 13.351562 225.800781 24.261719 228.109375 38.511719 C 230.480469 37.683594 232.988281 37.257812 235.546875 37.257812 C 248.058594 37.257812 258.238281 47.4375 258.238281 59.949219 C 258.238281 72.464844 248.058594 82.644531 235.546875 82.644531 Z M 235.546875 82.644531 " fill-opacity="1" fill-rule="nonzero"/></g><g transform="matrix(1, 0, 0, 1, 84, 289)"><g clip-path="url(#4491f4e541)"><g fill="#234447" fill-opacity="1"><g transform="translate(2.092518, 66.246357)"><g><path d="M 3.65625 -1.09375 L 8.046875 -2.203125 L 8.046875 -49.03125 L 3.65625 -50.140625 L 3.65625 -51.234375 L 24.515625 -51.234375 L 24.515625 -50.140625 L 20.125 -49.03125 L 20.125 -1.828125 L 35.859375 -1.828125 C 35.859375 -4.898438 36.640625 -7.753906 38.203125 -10.390625 C 38.890625 -11.515625 39.695312 -12.441406 40.625 -13.171875 L 42.8125 -13.171875 L 42.8125 0 L 3.65625 0 Z M 3.65625 -1.09375 "/></g></g></g><g fill="#234447" fill-opacity="1"><g transform="translate(47.391044, 66.246357)"><g><path d="M 17.203125 1.09375 C 12.859375 1.09375 9.515625 0.164062 7.171875 -1.6875 C 4.828125 -3.539062 3.65625 -5.90625 3.65625 -8.78125 C 3.65625 -10.6875 4.070312 -12.566406 4.90625 -14.421875 C 5.25 -15.296875 5.6875 -16.097656 6.21875 -16.828125 C 8.21875 -17.316406 10.390625 -17.757812 12.734375 -18.15625 C 18.003906 -19.03125 22.664062 -19.566406 26.71875 -19.765625 L 26.71875 -21.953125 C 26.71875 -27.367188 26.054688 -31.101562 24.734375 -33.15625 C 23.421875 -35.207031 21.394531 -36.234375 18.65625 -36.234375 C 17.632812 -36.234375 16.757812 -36.109375 16.03125 -35.859375 L 15 -35.5 L 15 -24.515625 L 14.046875 -24.296875 C 13.265625 -24.203125 12.609375 -24.15625 12.078125 -24.15625 C 10.421875 -24.15625 9.09375 -24.65625 8.09375 -25.65625 C 7.09375 -26.65625 6.59375 -27.984375 6.59375 -29.640625 C 6.59375 -31.878906 7.722656 -33.78125 9.984375 -35.34375 C 12.253906 -36.90625 15.632812 -37.6875 20.125 -37.6875 C 23.925781 -37.6875 27.207031 -37.015625 29.96875 -35.671875 C 32.726562 -34.335938 34.828125 -32.484375 36.265625 -30.109375 C 37.703125 -27.742188 38.421875 -25.023438 38.421875 -21.953125 L 38.421875 -2.203125 L 42.8125 -1.09375 L 42.8125 0 L 36.234375 0 C 33.304688 0 31.035156 -0.898438 29.421875 -2.703125 C 28.734375 -3.441406 28.195312 -4.367188 27.8125 -5.484375 C 27.125 -4.265625 26.316406 -3.171875 25.390625 -2.203125 C 23.203125 -0.00390625 20.472656 1.09375 17.203125 1.09375 Z M 20.125 -1.46875 C 21.925781 -1.46875 23.5625 -2.441406 25.03125 -4.390625 C 25.5625 -5.117188 26.125 -6.09375 26.71875 -7.3125 L 26.71875 -17.9375 C 24.46875 -17.9375 22.316406 -17.8125 20.265625 -17.5625 C 18.753906 -17.363281 17.734375 -17.242188 17.203125 -17.203125 C 16.953125 -16.660156 16.707031 -15.925781 16.46875 -15 C 15.976562 -13.144531 15.734375 -11.316406 15.734375 -9.515625 C 15.734375 -6.785156 16.144531 -4.757812 16.96875 -3.4375 C 17.800781 -2.125 18.851562 -1.46875 20.125 -1.46875 Z M 20.125 -1.46875 "/></g></g></g><g fill="#234447" fill-opacity="1"><g transform="translate(92.323674, 66.246357)"><g><path d="M 17.9375 1.09375 C 15.050781 1.09375 12.484375 0.351562 10.234375 -1.125 C 7.992188 -2.613281 6.210938 -4.8125 4.890625 -7.71875 C 3.578125 -10.625 2.921875 -14.148438 2.921875 -18.296875 C 2.921875 -24.546875 4.375 -29.335938 7.28125 -32.671875 C 10.1875 -36.015625 14.101562 -37.6875 19.03125 -37.6875 C 21.375 -37.6875 23.421875 -37.203125 25.171875 -36.234375 C 25.910156 -35.890625 26.671875 -35.398438 27.453125 -34.765625 L 27.453125 -49.03125 L 23.046875 -50.140625 L 23.046875 -51.234375 L 32.5625 -51.234375 C 36.957031 -51.234375 39.15625 -49.035156 39.15625 -44.640625 L 39.15625 -2.203125 L 43.546875 -1.09375 L 43.546875 0 L 36.953125 0 C 34.023438 0 31.757812 -0.898438 30.15625 -2.703125 C 29.46875 -3.441406 28.929688 -4.367188 28.546875 -5.484375 C 27.910156 -4.265625 27.101562 -3.171875 26.125 -2.203125 C 23.925781 -0.00390625 21.195312 1.09375 17.9375 1.09375 Z M 20.859375 -1.46875 C 22.660156 -1.46875 24.296875 -2.441406 25.765625 -4.390625 C 26.296875 -5.117188 26.859375 -6.09375 27.453125 -7.3125 L 27.453125 -32.5625 C 26.910156 -33.101562 26.347656 -33.59375 25.765625 -34.03125 C 24.441406 -35.007812 23.171875 -35.5 21.953125 -35.5 C 19.859375 -35.5 18.238281 -34.273438 17.09375 -31.828125 C 15.945312 -29.390625 15.375 -24.878906 15.375 -18.296875 C 15.375 -12.003906 15.894531 -7.625 16.9375 -5.15625 C 17.988281 -2.695312 19.296875 -1.46875 20.859375 -1.46875 Z M 20.859375 -1.46875 "/></g></g></g><g fill="#234447" fill-opacity="1"><g transform="translate(138.35399, 66.246357)"><g><path d="M 2.921875 -1.09375 L 7.3125 -2.203125 L 7.3125 -49.03125 L 2.921875 -50.140625 L 2.921875 -51.234375 L 12.4375 -51.234375 C 16.832031 -51.234375 19.03125 -49.035156 19.03125 -44.640625 L 19.03125 -2.203125 L 23.421875 -1.09375 L 23.421875 0 L 2.921875 0 Z M 2.921875 -1.09375 "/></g></g></g><g fill="#234447" fill-opacity="1"><g transform="translate(163.893898, 66.246357)"><g><path d="M 22.6875 1.09375 C 16.4375 1.09375 11.578125 -0.625 8.109375 -4.0625 C 4.648438 -7.5 2.921875 -12.242188 2.921875 -18.296875 C 2.921875 -22.242188 3.675781 -25.679688 5.1875 -28.609375 C 6.707031 -31.535156 8.820312 -33.78125 11.53125 -35.34375 C 14.238281 -36.90625 17.347656 -37.6875 20.859375 -37.6875 C 24.367188 -37.6875 27.453125 -37.023438 30.109375 -35.703125 C 32.773438 -34.390625 34.828125 -32.625 36.265625 -30.40625 C 37.703125 -28.1875 38.421875 -25.734375 38.421875 -23.046875 C 38.421875 -21.828125 38.300781 -20.78125 38.0625 -19.90625 L 37.6875 -18.65625 C 35.59375 -18.21875 33.328125 -17.851562 30.890625 -17.5625 C 25.765625 -16.832031 20.59375 -16.46875 15.375 -16.46875 C 15.375 -10.8125 16.148438 -6.773438 17.703125 -4.359375 C 19.265625 -1.941406 21.414062 -0.734375 24.15625 -0.734375 C 26.050781 -0.734375 27.816406 -1.179688 29.453125 -2.078125 C 31.085938 -2.984375 32.378906 -4.179688 33.328125 -5.671875 C 34.285156 -7.160156 34.765625 -8.6875 34.765625 -10.25 L 36.59375 -10.25 C 36.59375 -8.289062 36.003906 -6.429688 34.828125 -4.671875 C 33.660156 -2.921875 32.023438 -1.519531 29.921875 -0.46875 C 27.828125 0.570312 25.414062 1.09375 22.6875 1.09375 Z M 15.375 -18.296875 C 18.488281 -18.296875 21.023438 -18.414062 22.984375 -18.65625 C 23.804688 -18.707031 24.679688 -18.832031 25.609375 -19.03125 C 25.660156 -19.269531 25.785156 -19.804688 25.984375 -20.640625 C 26.222656 -21.859375 26.34375 -23.148438 26.34375 -24.515625 C 26.34375 -28.566406 25.804688 -31.53125 24.734375 -33.40625 C 23.660156 -35.289062 22.367188 -36.234375 20.859375 -36.234375 C 17.203125 -36.234375 15.375 -30.253906 15.375 -18.296875 Z M 15.375 -18.296875 "/></g></g></g></g></g></svg>